<svg version="1.1" id="Layer_1" xmlns="http://www.w3.org/2000/svg" xmlns:xlink="http://www.w3.org/1999/xlink" x="0px" y="0px"
	 width="100%" viewBox="0 0 317 92" enable-background="new 0 0 317 92" xml:space="preserve">
<path fill="#000000" opacity="1.000000" stroke="none" 
	d="
M233.000000,93.000000 
	C155.333359,93.000000 78.166710,93.000000 1.000052,93.000000 
	C1.000035,62.333366 1.000035,31.666731 1.000017,1.000072 
	C106.666603,1.000048 212.333206,1.000048 317.999878,1.000024 
	C317.999908,31.666594 317.999908,62.333187 317.999939,92.999893 
	C289.833344,93.000000 261.666656,93.000000 233.000000,93.000000 
M119.010834,55.056423 
	C118.949654,52.036064 118.888466,49.015701 118.997604,45.127155 
	C123.886101,44.564655 128.774597,44.002155 133.783325,43.425819 
	C133.783325,42.159664 133.783325,40.759609 133.783325,38.998417 
	C130.451004,38.998417 127.274498,39.330643 124.196503,38.921604 
	C119.417961,38.286579 116.384438,40.450714 113.166153,44.381207 
	C113.115158,47.770992 112.938522,51.166809 113.100624,54.546371 
	C113.141663,55.401943 114.262733,56.205711 115.007462,57.847359 
	C120.610435,63.598446 127.523750,59.888924 133.721161,61.159286 
	C133.721161,59.053192 133.721161,57.654434 133.721161,55.955479 
	C128.667709,55.955479 123.888504,55.955479 119.010834,55.056423 
M180.032440,45.663990 
	C180.128021,46.152534 180.223602,46.641079 180.358200,47.078495 
	C180.358200,47.078495 180.294098,47.070744 180.029572,47.796806 
	C180.019562,49.451397 179.998413,51.106014 180.002029,52.760578 
	C180.008286,55.628262 184.563049,60.891422 187.356979,60.967865 
	C192.130142,61.098454 196.909485,61.003880 201.672928,61.003880 
	C201.776779,56.152870 201.760666,56.217251 197.772736,55.983070 
	C193.788300,55.749092 189.814362,55.336781 186.008850,54.134094 
	C190.859863,53.563454 195.710876,52.992809 200.821884,52.391586 
	C201.795990,49.527149 200.029343,48.268623 197.297195,48.057945 
	C194.507950,47.842857 191.669113,47.805794 188.888962,48.073990 
	C186.323822,48.321442 185.758911,47.106316 186.279068,44.222443 
	C191.483658,44.222443 196.688263,44.222443 202.984451,44.222443 
	C201.780609,41.843479 201.069229,39.347572 200.441742,39.368481 
	C194.930817,39.552139 189.046509,36.957394 183.457214,41.067875 
	C183.361496,41.373920 183.265793,41.679970 183.015625,42.647060 
	C182.674042,43.154625 182.332474,43.662189 181.466232,44.016609 
	C181.036057,44.368504 180.605896,44.720402 180.032440,45.663990 
M102.995216,56.003605 
	C100.075867,56.003605 97.156509,56.003605 94.226189,56.003605 
	C94.226189,57.903595 94.226189,59.296577 94.226189,60.950871 
	C99.363167,60.810818 104.687622,62.484764 108.979691,56.978508 
	C112.359604,48.645405 110.136345,40.035038 103.899544,39.104969 
	C103.899544,44.768799 103.899544,50.365417 102.995216,56.003605 
M166.017609,59.980484 
	C169.866577,60.457878 173.715561,60.935276 177.598297,61.416866 
	C178.524490,57.441437 177.534058,55.776020 173.919418,55.979908 
	C171.637863,56.108601 169.339035,55.930676 166.993820,55.051819 
	C166.976624,54.221298 167.133804,53.341476 166.915070,52.567951 
	C164.904343,45.457291 165.872696,44.014248 172.774734,44.006382 
	C174.411011,44.004517 176.047287,44.006104 178.255432,44.006104 
	C177.424545,35.386204 170.054779,41.155991 166.843109,38.059673 
	C166.843109,35.985680 166.843109,33.699192 166.843109,31.214914 
	C164.884964,31.214914 163.149918,31.214914 161.004959,31.214914 
	C161.004959,37.942459 161.256012,44.563126 160.913483,51.152943 
	C160.698120,55.296642 161.775543,58.037098 166.017609,59.980484 
M271.747070,59.234486 
	C275.359680,60.050003 278.972290,60.865520 283.125763,61.803135 
	C282.958923,59.005787 282.875031,57.598873 282.773163,55.891228 
	C279.302307,55.891228 276.175018,55.891228 273.005066,55.003914 
	C273.005066,51.653721 273.005066,48.303524 273.005066,44.280479 
	C275.941925,44.280479 279.295105,44.280479 282.618347,44.280479 
	C282.618347,42.093784 282.618347,40.587883 282.618347,38.685535 
	C279.176697,38.685535 276.112976,38.685535 273.003387,38.685535 
	C273.003387,37.449516 272.964600,36.616596 273.010529,35.788372 
	C273.160156,33.091881 273.099854,30.834772 269.269684,30.944613 
	C265.593781,31.050030 265.996613,33.408970 265.998901,35.743931 
	C266.004364,41.232105 266.358826,46.750084 265.897186,52.198830 
	C265.540710,56.406506 267.786896,57.794758 271.747070,59.234486 
M142.977783,32.252041 
	C141.982620,31.893276 140.987442,31.534510 139.331879,31.031176 
	C138.886795,31.082354 138.441711,31.133530 137.463867,31.073845 
	C137.371033,31.379478 137.278183,31.685110 137.036194,32.918686 
	C137.036194,42.184921 137.036194,51.451157 137.036194,60.779045 
	C139.193680,60.779045 140.932297,60.779045 143.050354,60.779045 
	C143.050354,58.149261 143.050354,55.735954 143.050354,53.169189 
	C146.508224,53.169189 149.582382,53.169189 152.696823,53.169189 
	C150.978104,60.751659 152.060410,61.951530 158.682068,60.361809 
	C160.054169,55.148220 158.538162,51.320469 154.000107,49.751045 
	C154.684128,48.698273 155.377930,47.724869 155.968369,46.692356 
	C156.457489,45.837036 156.778076,44.885983 157.258560,44.024910 
	C157.778976,43.092285 159.041290,41.993481 158.824921,41.364616 
	C158.492554,40.398647 157.221741,39.221615 156.261124,39.137314 
	C154.983459,39.025196 152.950012,39.487690 152.426941,40.390377 
	C151.100525,42.679405 150.435104,45.351460 149.567596,47.700600 
	C147.322708,47.700600 145.255402,47.700600 142.818085,47.700600 
	C142.818085,42.606220 142.818085,37.807354 142.977783,32.252041 
M86.024193,59.834499 
	C87.797867,57.860016 90.447372,56.612854 90.091599,53.104435 
	C89.800919,50.237988 91.524086,46.587257 90.290573,44.509453 
	C87.084717,39.109306 81.323814,38.106674 75.332748,39.091309 
	C75.631050,37.819027 75.984550,37.021675 75.972321,36.229977 
	C75.935982,33.877625 76.825905,31.069183 72.725571,30.937645 
	C68.897293,30.814833 68.946396,33.099571 68.975868,35.776855 
	C69.041687,41.755890 68.944450,47.737144 69.055046,53.714878 
	C69.075241,54.806820 69.445038,56.253666 70.198967,56.911339 
	C74.699158,60.836971 79.962555,62.043198 86.024193,59.834499 
M286.002319,48.470989 
	C286.310516,51.292519 285.805145,54.575191 287.090515,56.842834 
	C290.077972,62.113373 295.947906,60.944946 301.265137,61.040321 
	C301.265137,64.427589 301.265137,67.180405 301.265137,70.086693 
	C303.392426,69.963417 305.126953,69.862907 306.742981,69.769264 
	C306.742981,59.242138 306.742981,49.157341 306.742981,39.252613 
	C301.706818,37.939358 300.662445,40.346813 300.951721,44.540817 
	C301.210022,48.286026 301.006042,52.063122 301.006042,55.710823 
	C297.683350,55.710823 294.948669,55.710823 292.002289,55.710823 
	C292.002289,51.622589 291.798828,47.806557 292.054138,44.021461 
	C292.368225,39.364616 290.486481,38.068790 286.002289,39.557381 
	C286.002289,42.218491 286.002289,44.860363 286.002319,48.470989 
M230.007492,52.628586 
	C230.007492,49.968193 230.007492,47.307804 230.007492,44.319954 
	C232.773666,44.319954 235.657547,44.319954 239.090912,44.319954 
	C239.090912,49.838566 239.090912,55.386765 239.090912,61.094322 
	C241.379211,60.963692 243.117386,60.864464 244.994034,60.757332 
	C244.994034,56.523121 244.995224,52.713028 244.993805,48.902935 
	C244.991150,41.787914 236.188431,35.937778 229.809402,39.269188 
	C227.103989,40.682072 223.906448,43.418503 223.302475,46.089310 
	C222.242081,50.778534 223.006332,55.880375 223.006332,60.739445 
	C225.615097,60.739445 227.682800,60.739445 230.007034,60.739445 
	C230.007034,58.175018 230.007034,55.873699 230.007492,52.628586 
M254.004044,47.445236 
	C254.004044,45.011436 254.004044,42.577633 254.004044,40.294647 
	C251.344223,40.294647 249.275589,40.294647 247.003494,40.294647 
	C247.003494,44.895840 246.820053,49.215363 247.115936,53.501804 
	C247.204010,54.777908 248.615738,55.975895 249.457199,57.184452 
	C253.158325,62.500160 258.592377,60.722294 263.629639,61.010956 
	C263.629639,59.102009 263.629639,57.593620 263.629639,55.866341 
	C259.976013,55.866341 256.675873,55.866341 254.004059,55.866341 
	C254.004059,53.220577 254.004059,50.805702 254.004044,47.445236 
M215.563354,44.002926 
	C217.346786,44.002926 219.130234,44.002926 221.552338,44.002926 
	C220.832520,42.018482 220.743286,40.195652 219.803391,39.460663 
	C216.185135,36.631218 204.554398,41.130512 204.123734,45.670456 
	C203.644730,50.720016 204.014053,55.850052 204.014053,61.103737 
	C206.393097,60.969955 208.134918,60.872009 209.997925,60.767246 
	C209.997925,56.357594 210.198349,52.361839 209.939270,48.396114 
	C209.699310,44.722984 211.328156,43.585487 215.563354,44.002926 
M56.965942,47.718460 
	C52.740757,41.586506 47.773869,47.042706 43.151531,46.780289 
	C47.341702,50.269470 52.139072,48.826687 56.965942,47.718460 
M34.000820,68.113770 
	C34.545238,69.447472 35.089661,70.781174 35.634083,72.114876 
	C36.086071,71.965805 36.538063,71.816727 36.990051,71.667656 
	C36.990051,67.558434 37.078339,63.445644 36.912609,59.343117 
	C36.880962,58.559879 35.847004,57.817131 35.275482,57.055702 
	C34.853462,57.792057 34.111038,58.509995 34.067459,59.268108 
	C33.916050,61.901821 34.007130,64.549469 34.000820,68.113770 
M13.231745,48.672539 
	C17.773184,48.672539 22.314625,48.672539 27.243280,48.672539 
	C26.793484,47.568401 26.526215,46.296349 26.235575,46.290985 
	C21.645702,46.206299 17.052826,46.284351 12.460640,46.325089 
	C12.512386,46.892811 12.564133,47.460537 13.231745,48.672539 
M36.942883,35.906174 
	C36.942883,31.325603 36.942883,26.745035 36.942883,21.745987 
	C35.648148,22.195890 34.349121,22.419971 34.340931,22.684080 
	C34.208672,26.949081 34.170818,31.221918 34.338943,35.484009 
	C34.356449,35.927887 35.815495,36.314899 36.942883,35.906174 
M253.968918,32.659687 
	C253.196457,32.111523 252.383331,31.061169 251.660004,31.119743 
	C250.153976,31.241697 248.629776,31.824394 247.275482,32.529690 
	C247.018906,32.663315 247.335510,34.937374 247.693863,35.029232 
	C249.128952,35.397095 250.714920,35.496456 252.182251,35.276314 
	C252.863464,35.174114 253.400711,34.112274 253.968918,32.659687 
z"/>
<path fill="#FEFEF5" opacity="1.000000" stroke="none" 
	d="
M85.909485,60.264175 
	C79.962555,62.043198 74.699158,60.836971 70.198967,56.911339 
	C69.445038,56.253666 69.075241,54.806820 69.055046,53.714878 
	C68.944450,47.737144 69.041687,41.755890 68.975868,35.776855 
	C68.946396,33.099571 68.897293,30.814833 72.725571,30.937645 
	C76.825905,31.069183 75.935982,33.877625 75.972321,36.229977 
	C75.984550,37.021675 75.631050,37.819027 75.332748,39.091309 
	C81.323814,38.106674 87.084717,39.109306 90.290573,44.509453 
	C91.524086,46.587257 89.800919,50.237988 90.091599,53.104435 
	C90.447372,56.612854 87.797867,57.860016 85.909485,60.264175 
M83.347855,55.995636 
	C83.907265,55.389935 84.918633,54.806839 84.950241,54.174751 
	C85.113564,50.908779 85.026085,47.630264 85.026085,44.462051 
	C81.603935,44.462051 78.624321,44.462051 75.636780,44.462051 
	C75.849731,48.547028 76.037773,52.154202 76.238228,55.999496 
	C78.475746,55.999496 80.438065,55.999496 83.347855,55.995636 
z"/>
<path fill="#FDFDF3" opacity="1.000000" stroke="none" 
	d="
M137.996628,31.184708 
	C138.441711,31.133530 138.886795,31.082354 139.720108,31.420742 
	C141.011581,32.209705 141.914841,32.609097 142.818085,33.008492 
	C142.818085,37.807354 142.818085,42.606220 142.818085,47.700600 
	C145.255402,47.700600 147.322708,47.700600 149.567596,47.700600 
	C150.435104,45.351460 151.100525,42.679405 152.426941,40.390377 
	C152.950012,39.487690 154.983459,39.025196 156.261124,39.137314 
	C157.221741,39.221615 158.492554,40.398647 158.824921,41.364616 
	C159.041290,41.993481 157.778976,43.092285 157.258560,44.024910 
	C156.778076,44.885983 156.457489,45.837036 155.968369,46.692356 
	C155.377930,47.724869 154.684128,48.698273 154.000107,49.751045 
	C158.538162,51.320469 160.054169,55.148220 158.682068,60.361809 
	C152.060410,61.951530 150.978104,60.751659 152.696823,53.169189 
	C149.582382,53.169189 146.508224,53.169189 143.050354,53.169189 
	C143.050354,55.735954 143.050354,58.149261 143.050354,60.779045 
	C140.932297,60.779045 139.193680,60.779045 137.036194,60.779045 
	C137.036194,51.451157 137.036194,42.184921 137.284683,32.363464 
	C137.749313,31.646227 137.903793,31.438383 137.996628,31.184708 
z"/>
<path fill="#FCFCF3" opacity="1.000000" stroke="none" 
	d="
M286.002319,47.986614 
	C286.002289,44.860363 286.002289,42.218491 286.002289,39.557381 
	C290.486481,38.068790 292.368225,39.364616 292.054138,44.021461 
	C291.798828,47.806557 292.002289,51.622589 292.002289,55.710823 
	C294.948669,55.710823 297.683350,55.710823 301.006042,55.710823 
	C301.006042,52.063122 301.210022,48.286026 300.951721,44.540817 
	C300.662445,40.346813 301.706818,37.939358 306.742981,39.252613 
	C306.742981,49.157341 306.742981,59.242138 306.742981,69.769264 
	C305.126953,69.862907 303.392426,69.963417 301.265137,70.086693 
	C301.265137,67.180405 301.265137,64.427589 301.265137,61.040321 
	C295.947906,60.944946 290.077972,62.113373 287.090515,56.842834 
	C285.805145,54.575191 286.310516,51.292519 286.002319,47.986614 
z"/>
<path fill="#FCFDF5" opacity="1.000000" stroke="none" 
	d="
M230.007263,53.100483 
	C230.007034,55.873699 230.007034,58.175018 230.007034,60.739445 
	C227.682800,60.739445 225.615097,60.739445 223.006332,60.739445 
	C223.006332,55.880375 222.242081,50.778534 223.302475,46.089310 
	C223.906448,43.418503 227.103989,40.682072 229.809402,39.269188 
	C236.188431,35.937778 244.991150,41.787914 244.993805,48.902935 
	C244.995224,52.713028 244.994034,56.523121 244.994034,60.757332 
	C243.117386,60.864464 241.379211,60.963692 239.090912,61.094322 
	C239.090912,55.386765 239.090912,49.838566 239.090912,44.319954 
	C235.657547,44.319954 232.773666,44.319954 230.007492,44.319954 
	C230.007492,47.307804 230.007492,49.968193 230.007263,53.100483 
z"/>
<path fill="#FDFEF4" opacity="1.000000" stroke="none" 
	d="
M271.002380,58.834641 
	C267.786896,57.794758 265.540710,56.406506 265.897186,52.198830 
	C266.358826,46.750084 266.004364,41.232105 265.998901,35.743931 
	C265.996613,33.408970 265.593781,31.050030 269.269684,30.944613 
	C273.099854,30.834772 273.160156,33.091881 273.010529,35.788372 
	C272.964600,36.616596 273.003387,37.449516 273.003387,38.685535 
	C276.112976,38.685535 279.176697,38.685535 282.618347,38.685535 
	C282.618347,40.587883 282.618347,42.093784 282.618347,44.280479 
	C279.295105,44.280479 275.941925,44.280479 273.005066,44.280479 
	C273.005066,48.303524 273.005066,51.653721 272.865234,55.713692 
	C272.151031,57.227188 271.576721,58.030914 271.002380,58.834641 
z"/>
<path fill="#FCFCF2" opacity="1.000000" stroke="none" 
	d="
M165.954086,59.118622 
	C161.775543,58.037098 160.698120,55.296642 160.913483,51.152943 
	C161.256012,44.563126 161.004959,37.942459 161.004959,31.214914 
	C163.149918,31.214914 164.884964,31.214914 166.843109,31.214914 
	C166.843109,33.699192 166.843109,35.985680 166.843109,38.059673 
	C170.054779,41.155991 177.424545,35.386204 178.255432,44.006104 
	C176.047287,44.006104 174.411011,44.004517 172.774734,44.006382 
	C165.872696,44.014248 164.904343,45.457291 166.915070,52.567951 
	C167.133804,53.341476 166.976624,54.221298 166.887024,55.788452 
	C166.504852,57.389595 166.229462,58.254108 165.954086,59.118622 
z"/>
<path fill="#FDFDF8" opacity="1.000000" stroke="none" 
	d="
M254.004059,47.918030 
	C254.004059,50.805702 254.004059,53.220577 254.004059,55.866341 
	C256.675873,55.866341 259.976013,55.866341 263.629639,55.866341 
	C263.629639,57.593620 263.629639,59.102009 263.629639,61.010956 
	C258.592377,60.722294 253.158325,62.500160 249.457199,57.184452 
	C248.615738,55.975895 247.204010,54.777908 247.115936,53.501804 
	C246.820053,49.215363 247.003494,44.895840 247.003494,40.294647 
	C249.275589,40.294647 251.344223,40.294647 254.004044,40.294647 
	C254.004044,42.577633 254.004044,45.011436 254.004059,47.918030 
z"/>
<path fill="#FDFEF4" opacity="1.000000" stroke="none" 
	d="
M215.108246,44.003159 
	C211.328156,43.585487 209.699310,44.722984 209.939270,48.396114 
	C210.198349,52.361839 209.997925,56.357594 209.997925,60.767246 
	C208.134918,60.872009 206.393097,60.969955 204.014053,61.103737 
	C204.014053,55.850052 203.644730,50.720016 204.123734,45.670456 
	C204.554398,41.130512 216.185135,36.631218 219.803391,39.460663 
	C220.743286,40.195652 220.832520,42.018482 221.552338,44.002926 
	C219.130234,44.002926 217.346786,44.002926 215.108246,44.003159 
z"/>
<path fill="#FDFEF6" opacity="1.000000" stroke="none" 
	d="
M185.835815,55.002647 
	C189.814362,55.336781 193.788300,55.749092 197.772736,55.983070 
	C201.760666,56.217251 201.776779,56.152870 201.672928,61.003880 
	C196.909485,61.003880 192.130142,61.098454 187.356979,60.967865 
	C184.563049,60.891422 180.008286,55.628262 180.002029,52.760578 
	C179.998413,51.106014 180.019562,49.451397 180.575607,47.636971 
	C181.895737,48.661930 182.688461,49.835052 183.438889,51.034653 
	C184.258286,52.344543 185.038513,53.678940 185.835815,55.002647 
z"/>
<path fill="#FBFBF1" opacity="1.000000" stroke="none" 
	d="
M103.899544,55.962040 
	C103.899544,50.365417 103.899544,44.768799 103.899544,39.104969 
	C110.136345,40.035038 112.359604,48.645405 108.184189,56.967403 
	C106.225632,56.624878 105.062592,56.293461 103.899544,55.962040 
z"/>
<path fill="#FBFCF0" opacity="1.000000" stroke="none" 
	d="
M185.922333,54.568371 
	C185.038513,53.678940 184.258286,52.344543 183.438889,51.034653 
	C182.688461,49.835052 181.895737,48.661930 180.707870,47.273941 
	C180.294098,47.070744 180.358200,47.078495 180.861908,47.139862 
	C182.855804,46.466446 184.345993,45.731655 185.836182,44.996872 
	C185.758911,47.106316 186.323822,48.321442 188.888962,48.073990 
	C191.669113,47.805794 194.507950,47.842857 197.297195,48.057945 
	C200.029343,48.268623 201.795990,49.527149 200.821884,52.391586 
	C195.710876,52.992809 190.859863,53.563454 185.922333,54.568371 
z"/>
<path fill="#FDFEF8" opacity="1.000000" stroke="none" 
	d="
M114.003456,44.169765 
	C116.384438,40.450714 119.417961,38.286579 124.196503,38.921604 
	C127.274498,39.330643 130.451004,38.998417 133.783325,38.998417 
	C133.783325,40.759609 133.783325,42.159664 133.783325,43.425819 
	C128.774597,44.002155 123.886101,44.564655 118.536987,45.562302 
	C116.718727,45.388222 115.361092,44.778996 114.003456,44.169765 
z"/>
<path fill="#FEFDF7" opacity="1.000000" stroke="none" 
	d="
M186.057617,44.609657 
	C184.345993,45.731655 182.855804,46.466446 180.842407,47.165428 
	C180.223602,46.641079 180.128021,46.152534 180.447968,45.310375 
	C181.239288,44.694427 181.615097,44.432091 181.990891,44.169758 
	C182.332474,43.662189 182.674042,43.154625 183.268829,42.222656 
	C183.740372,41.632687 183.897125,41.421406 183.992264,41.164410 
	C189.046509,36.957394 194.930817,39.552139 200.441742,39.368481 
	C201.069229,39.347572 201.780609,41.843479 202.984451,44.222443 
	C196.688263,44.222443 191.483658,44.222443 186.057617,44.609657 
z"/>
<path fill="#FEFEF9" opacity="1.000000" stroke="none" 
	d="
M119.109299,55.955482 
	C123.888504,55.955479 128.667709,55.955479 133.721161,55.955479 
	C133.721161,57.654434 133.721161,59.053192 133.721161,61.159286 
	C127.523750,59.888924 120.610435,63.598446 115.229507,57.525925 
	C116.670807,56.788155 117.890053,56.371819 119.109299,55.955482 
z"/>
<path fill="#FBFBF0" opacity="1.000000" stroke="none" 
	d="
M119.060066,55.505951 
	C117.890053,56.371819 116.670807,56.788155 115.169540,57.118885 
	C114.262733,56.205711 113.141663,55.401943 113.100624,54.546371 
	C112.938522,51.166809 113.115158,47.770992 113.584808,44.275486 
	C115.361092,44.778996 116.718727,45.388222 118.451820,45.996395 
	C118.888466,49.015701 118.949654,52.036064 119.060066,55.505951 
z"/>
<path fill="#FDFDFA" opacity="1.000000" stroke="none" 
	d="
M103.447380,55.982822 
	C105.062592,56.293461 106.225632,56.624878 107.751480,56.998878 
	C104.687622,62.484764 99.363167,60.810818 94.226189,60.950871 
	C94.226189,59.296577 94.226189,57.903595 94.226189,56.003605 
	C97.156509,56.003605 100.075867,56.003605 103.447380,55.982822 
z"/>
<path fill="#FDFDFA" opacity="1.000000" stroke="none" 
	d="
M165.985840,59.549553 
	C166.229462,58.254108 166.504852,57.389595 166.914093,56.207687 
	C169.339035,55.930676 171.637863,56.108601 173.919418,55.979908 
	C177.534058,55.776020 178.524490,57.441437 177.598297,61.416866 
	C173.715561,60.935276 169.866577,60.457878 165.985840,59.549553 
z"/>
<path fill="#FEFEF9" opacity="1.000000" stroke="none" 
	d="
M271.374725,59.034561 
	C271.576721,58.030914 272.151031,57.227188 272.886536,56.157349 
	C276.175018,55.891228 279.302307,55.891228 282.773163,55.891228 
	C282.875031,57.598873 282.958923,59.005787 283.125763,61.803135 
	C278.972290,60.865520 275.359680,60.050003 271.374725,59.034561 
z"/>
<path fill="#86D365" opacity="1.000000" stroke="none" 
	d="
M56.874500,48.149475 
	C52.139072,48.826687 47.341702,50.269470 43.151531,46.780289 
	C47.773869,47.042706 52.740757,41.586506 56.874500,48.149475 
z"/>
<path fill="#81D75F" opacity="1.000000" stroke="none" 
	d="
M34.003399,67.652794 
	C34.007130,64.549469 33.916050,61.901821 34.067459,59.268108 
	C34.111038,58.509995 34.853462,57.792057 35.275482,57.055702 
	C35.847004,57.817131 36.880962,58.559879 36.912609,59.343117 
	C37.078339,63.445644 36.990051,67.558434 36.990051,71.667656 
	C36.538063,71.816727 36.086071,71.965805 35.634083,72.114876 
	C35.089661,70.781174 34.545238,69.447472 34.003399,67.652794 
z"/>
<path fill="#82D65C" opacity="1.000000" stroke="none" 
	d="
M12.923811,48.350399 
	C12.564133,47.460537 12.512386,46.892811 12.460640,46.325089 
	C17.052826,46.284351 21.645702,46.206299 26.235575,46.290985 
	C26.526215,46.296349 26.793484,47.568401 27.243280,48.672539 
	C22.314625,48.672539 17.773184,48.672539 12.923811,48.350399 
z"/>
<path fill="#82D65A" opacity="1.000000" stroke="none" 
	d="
M36.774292,36.317238 
	C35.815495,36.314899 34.356449,35.927887 34.338943,35.484009 
	C34.170818,31.221918 34.208672,26.949081 34.340931,22.684080 
	C34.349121,22.419971 35.648148,22.195890 36.942883,21.745987 
	C36.942883,26.745035 36.942883,31.325603 36.774292,36.317238 
z"/>
<path fill="#FCFDF2" opacity="1.000000" stroke="none" 
	d="
M253.986084,33.072578 
	C253.400711,34.112274 252.863464,35.174114 252.182251,35.276314 
	C250.714920,35.496456 249.128952,35.397095 247.693863,35.029232 
	C247.335510,34.937374 247.018906,32.663315 247.275482,32.529690 
	C248.629776,31.824394 250.153976,31.241697 251.660004,31.119743 
	C252.383331,31.061169 253.196457,32.111523 253.986084,33.072578 
z"/>
<path fill="#F2F3EC" opacity="1.000000" stroke="none" 
	d="
M142.897934,32.630264 
	C141.914841,32.609097 141.011581,32.209705 140.050308,31.493027 
	C140.987442,31.534510 141.982620,31.893276 142.897934,32.630264 
z"/>
<path fill="#FBFCF0" opacity="1.000000" stroke="none" 
	d="
M181.728561,44.093185 
	C181.615097,44.432091 181.239288,44.694427 180.519608,45.014530 
	C180.605896,44.720402 181.036057,44.368504 181.728561,44.093185 
z"/>
<path fill="#FBFCF0" opacity="1.000000" stroke="none" 
	d="
M183.724731,41.116142 
	C183.897125,41.421406 183.740372,41.632687 183.346054,41.892136 
	C183.265793,41.679970 183.361496,41.373920 183.724731,41.116142 
z"/>
<path fill="#F2F3EC" opacity="1.000000" stroke="none" 
	d="
M137.730255,31.129276 
	C137.903793,31.438383 137.749313,31.646227 137.359253,31.899490 
	C137.278183,31.685110 137.371033,31.379478 137.730255,31.129276 
z"/>
<path fill="#000000" opacity="1.000000" stroke="none" 
	d="
M82.874115,55.997566 
	C80.438065,55.999496 78.475746,55.999496 76.238228,55.999496 
	C76.037773,52.154202 75.849731,48.547028 75.636780,44.462051 
	C78.624321,44.462051 81.603935,44.462051 85.026085,44.462051 
	C85.026085,47.630264 85.113564,50.908779 84.950241,54.174751 
	C84.918633,54.806839 83.907265,55.389935 82.874115,55.997566 
z"/>
</svg>